<svg width="32" height="32" viewBox="0 0 32 32" fill="none" xmlns="http://www.w3.org/2000/svg">
<path d="M16 31C24.2843 31 31 24.2843 31 16C31 7.71573 24.2843 1 16 1C7.71573 1 1 7.71573 1 16C1 24.2843 7.71573 31 16 31Z" stroke="#E7E3DD"/>
<path d="M19.5363 8.77931L17.6629 8.77631C15.5581 8.77631 14.1979 10.1718 14.1979 12.3318V13.9712H12.3142C12.1514 13.9712 12.0195 14.1031 12.0195 14.2659V16.6411C12.0195 16.8039 12.1515 16.9357 12.3142 16.9357H14.1979V22.9292C14.1979 23.0919 14.3296 23.2237 14.4924 23.2237H16.9501C17.1129 23.2237 17.2447 23.0918 17.2447 22.9292V16.9357H19.4472C19.61 16.9357 19.7418 16.8039 19.7418 16.6411L19.7427 14.2659C19.7427 14.1877 19.7116 14.1129 19.6565 14.0576C19.6013 14.0023 19.5262 13.9712 19.448 13.9712H17.2447V12.5815C17.2447 11.9135 17.4039 11.5745 18.2739 11.5745L19.536 11.574C19.6986 11.574 19.8305 11.4421 19.8305 11.2795V9.0739C19.8305 8.91143 19.6988 8.77961 19.5363 8.77931Z" fill="#E7E3DD"/>
</svg>
