<svg width="32" height="32" viewBox="0 0 32 32" fill="none" xmlns="http://www.w3.org/2000/svg">
<path d="M16 31C24.2843 31 31 24.2843 31 16C31 7.71573 24.2843 1 16 1C7.71573 1 1 7.71573 1 16C1 24.2843 7.71573 31 16 31Z" stroke="#E7E3DD"/>
<path d="M18.7094 8.77631H13.2916C10.7992 8.77631 8.77734 10.798 8.77734 13.2911V18.7089C8.77734 21.202 10.7992 23.2237 13.2916 23.2237H18.7094C21.2028 23.2237 23.2246 21.202 23.2246 18.7089V13.2911C23.2246 10.798 21.2028 8.77631 18.7094 8.77631ZM21.8697 18.7089C21.8697 20.4516 20.4525 21.8692 18.7094 21.8692H13.2916C11.5495 21.8692 10.1313 20.4516 10.1313 18.7089V13.2911C10.1313 11.5484 11.5495 10.1307 13.2916 10.1307H18.7094C20.4525 10.1307 21.8697 11.5484 21.8697 13.2911V18.7089Z" fill="#E7E3DD"/>
<path d="M16.0012 12.3884C14.0062 12.3884 12.3887 14.0054 12.3887 16C12.3887 17.9946 14.0062 19.6116 16.0012 19.6116C17.9953 19.6116 19.6128 17.9946 19.6128 16C19.6128 14.0054 17.9953 12.3884 16.0012 12.3884ZM16.0012 18.2573C14.7565 18.2573 13.7436 17.2442 13.7436 16C13.7436 14.7549 14.7565 13.7427 16.0012 13.7427C17.245 13.7427 18.2579 14.7549 18.2579 16C18.2579 17.2442 17.245 18.2573 16.0012 18.2573Z" fill="#E7E3DD"/>
<path d="M19.8834 12.5985C20.1488 12.5985 20.3644 12.3831 20.3644 12.1173C20.3644 11.8515 20.1488 11.636 19.8834 11.636C19.6179 11.636 19.4023 11.8515 19.4023 12.1173C19.4023 12.3831 19.6179 12.5985 19.8834 12.5985Z" fill="#E7E3DD"/>
</svg>
