<svg width="32" height="32" viewBox="0 0 32 32" fill="none" xmlns="http://www.w3.org/2000/svg">
<path d="M16 31C24.2843 31 31 24.2843 31 16C31 7.71573 24.2843 1 16 1C7.71573 1 1 7.71573 1 16C1 24.2843 7.71573 31 16 31Z" stroke="#E7E3DD"/>
<path fill-rule="evenodd" clip-rule="evenodd" d="M21.1122 17.6986C21.5915 18.1666 22.0975 18.6069 22.5273 19.1221C22.7173 19.351 22.897 19.5873 23.0346 19.8529C23.2295 20.2307 23.053 20.6463 22.7143 20.6688L20.6091 20.6679C20.0662 20.713 19.6331 20.4944 19.2689 20.1231C18.9775 19.8262 18.7075 19.5102 18.4272 19.2033C18.3124 19.0779 18.1921 18.9599 18.0485 18.8666C17.7611 18.68 17.5117 18.7371 17.3474 19.0369C17.1801 19.3418 17.1423 19.6793 17.1258 20.0191C17.1033 20.5148 16.9534 20.6451 16.4555 20.6678C15.3913 20.718 14.3814 20.557 13.4432 20.0201C12.616 19.5469 11.9746 18.8788 11.4163 18.1224C10.3293 16.6496 9.4969 15.0312 8.74876 13.3674C8.58036 12.9926 8.70351 12.7914 9.11708 12.7842C9.80384 12.7709 10.4905 12.7719 11.1781 12.7833C11.4571 12.7874 11.642 12.9475 11.7497 13.2111C12.1213 14.1248 12.576 14.9941 13.1466 15.7998C13.2986 16.0142 13.4535 16.2288 13.6742 16.3797C13.9184 16.5469 14.1043 16.4915 14.2191 16.2196C14.292 16.0471 14.3239 15.8614 14.3403 15.6767C14.3947 15.0413 14.4019 14.407 14.3065 13.7738C14.2478 13.3787 14.0253 13.1228 13.631 13.0481C13.4298 13.0099 13.4598 12.9351 13.5571 12.8202C13.7263 12.6221 13.8855 12.4988 14.2028 12.4988H16.5819C16.9565 12.5728 17.0396 12.741 17.0909 13.1179L17.0929 15.7607C17.0889 15.9066 17.1658 16.3396 17.4286 16.4362C17.6389 16.5049 17.7776 16.3366 17.9038 16.2032C18.4733 15.5986 18.8799 14.8842 19.2431 14.1443C19.4043 13.819 19.5429 13.4811 19.6772 13.1435C19.7767 12.893 19.9329 12.7698 20.215 12.7752L22.5048 12.7772C22.5727 12.7772 22.6414 12.7783 22.7072 12.7895C23.093 12.8553 23.1988 13.0213 23.0796 13.3981C22.8918 13.9893 22.5265 14.4819 22.1692 14.9767C21.7874 15.5051 21.379 16.0155 21.0003 16.5469C20.6524 17.0324 20.6801 17.277 21.1122 17.6986Z" fill="#E7E3DD"/>
</svg>
